<svg width="210" height="76" viewBox="0 0 210 76" fill="none" xmlns="http://www.w3.org/2000/svg">
<path d="M210 15.7219V24.6354H191.378V34.2649H205.312V42.9183H191.378V61.3942H180.243V15.7219H210Z" fill="#B7B7B7"/>
<path d="M2.9306 25.9548C4.88434 22.4205 7.6083 19.6665 11.1025 17.6929C14.5967 15.7192 18.5578 14.7324 22.9859 14.7324C28.4124 14.7324 33.0552 16.1644 36.9197 19.0256C40.7816 21.8895 43.366 25.7912 44.6676 30.736H32.4272C31.5147 28.8267 30.2239 27.376 28.5519 26.3758C26.88 25.3782 24.9799 24.8794 22.8544 24.8794C19.4246 24.8794 16.647 26.0727 14.5215 28.4566C12.3933 30.8432 11.3306 34.0316 11.3306 38.0218C11.3306 42.0119 12.3933 45.2003 14.5215 47.5842C16.647 49.9708 19.4273 51.1614 22.8544 51.1614C24.9799 51.1614 26.88 50.6626 28.5519 49.6651C30.2212 48.6676 31.5147 47.2142 32.4272 45.3049H44.6676C43.366 50.2497 40.7816 54.1433 36.9197 56.9831C33.0552 59.8255 28.4124 61.2441 22.9859 61.2441C18.5578 61.2441 14.5967 60.2573 11.1025 58.2836C7.6083 56.31 4.88434 53.5668 2.9306 50.0539C0.976868 46.5464 0 42.5348 0 38.0218C0 33.5114 0.976868 29.489 2.9306 25.9548Z" fill="#B7B7B7"/>
<path d="M62.6376 24.1662V33.4042H77.5483V41.9905H62.6376V52.0088H79.502V60.9223H51.5029V15.2527H79.502V24.1662H62.6376Z" fill="#B7B7B7"/>
<path d="M119.736 37.2093C118.521 39.4001 116.653 41.1673 114.138 42.5107C111.621 43.8542 108.494 44.5273 104.761 44.5273H97.8614V60.9223H86.7267V15.2527H104.761C108.408 15.2527 111.489 15.8829 114.007 17.1378C116.524 18.3955 118.413 20.1304 119.672 22.3427C120.93 24.555 121.561 27.0918 121.561 29.9557C121.561 32.6024 120.952 35.0211 119.736 37.2093ZM108.669 34.1845C109.71 33.187 110.231 31.7765 110.231 29.9557C110.231 28.1349 109.71 26.7244 108.669 25.7269C107.627 24.7293 106.041 24.2305 103.916 24.2305H97.8614V35.6808H103.916C106.041 35.6808 107.627 35.182 108.669 34.1845Z" fill="#B7B7B7"/>
<path d="M3.53175 75.8748C3.02453 75.8748 2.55489 75.789 2.12281 75.6201C1.69073 75.4484 1.3177 75.2098 1.00371 74.9014C0.689712 74.593 0.442811 74.2283 0.265687 73.8127C0.0885622 73.3917 0 72.9358 0 72.4424C0 71.9463 0.0885622 71.4905 0.265687 71.0721C0.442811 70.6538 0.689712 70.2918 1.00907 69.9834C1.32843 69.675 1.70147 69.4337 2.13354 69.2648C2.56562 69.0931 3.03527 69.0073 3.54249 69.0073C4.03092 69.0073 4.49252 69.0905 4.92191 69.254C5.35399 69.4176 5.71629 69.6643 6.0115 69.9915L5.55795 70.4446C5.28153 70.1631 4.97559 69.9566 4.64012 69.8332C4.30466 69.7072 3.94504 69.6455 3.55859 69.6455C3.15335 69.6455 2.77763 69.7153 2.42875 69.852C2.08255 69.9915 1.7793 70.1872 1.52166 70.4393C1.26402 70.694 1.06275 70.989 0.917827 71.3269C0.772907 71.6647 0.700447 72.0348 0.700447 72.4397C0.700447 72.8446 0.772907 73.2174 0.917827 73.5526C1.06275 73.8878 1.26402 74.1854 1.52166 74.4402C1.7793 74.6949 2.08255 74.8907 2.42875 75.0274C2.77495 75.1669 3.15335 75.2339 3.55859 75.2339C3.94504 75.2339 4.30466 75.1695 4.64012 75.0408C4.97559 74.9121 5.28153 74.7056 5.55795 74.4241L6.0115 74.8773C5.71629 75.2044 5.3513 75.4538 4.92191 75.6201C4.48984 75.7917 4.02556 75.8748 3.53175 75.8748Z" fill="#B7B7B7"/>
<path d="M10.6435 75.8749C9.78201 75.8749 9.10303 75.6282 8.60655 75.1321C8.11006 74.636 7.86316 73.9039 7.86316 72.9332V69.0664H8.57702V72.9037C8.57702 73.7001 8.75683 74.2901 9.11645 74.6682C9.47607 75.0463 9.98597 75.2367 10.6408 75.2367C11.3037 75.2367 11.8163 75.0463 12.1759 74.6682C12.5355 74.2874 12.7153 73.7001 12.7153 72.9037V69.0664H13.4104V72.9332C13.4104 73.9039 13.1635 74.636 12.6724 75.1321C12.1812 75.6282 11.5049 75.8749 10.6435 75.8749Z" fill="#B7B7B7"/>
<path d="M15.9491 75.8159V69.0664H18.4771C19.0488 69.0664 19.5426 69.1576 19.9532 69.3426C20.3638 69.525 20.6831 69.7904 20.9032 70.1337C21.1233 70.4769 21.236 70.8925 21.236 71.3806C21.236 71.8579 21.126 72.2655 20.9032 72.6114C20.6805 72.9547 20.3638 73.2175 19.9532 73.4025C19.5426 73.5848 19.0488 73.6787 18.4771 73.6787H16.3436L16.663 73.3515V75.8213H15.9491V75.8159ZM16.663 73.4052L16.3436 73.0673H18.4584C19.1347 73.0673 19.6472 72.9198 19.9988 72.6248C20.3504 72.3299 20.5248 71.9142 20.5248 71.3806C20.5248 70.8416 20.3504 70.4233 19.9988 70.1283C19.6472 69.8333 19.1347 69.6858 18.4584 69.6858H16.3436L16.663 69.348V73.4052ZM20.5624 75.8159L18.826 73.3676H19.5989L21.346 75.8159H20.5624Z" fill="#B7B7B7"/>
<path d="M25.1759 75.8748C24.674 75.8748 24.1937 75.7917 23.7321 75.6281C23.2731 75.4645 22.9162 75.2527 22.6666 74.9953L22.9457 74.4455C23.1846 74.6761 23.5039 74.8719 23.9065 75.0301C24.3091 75.1883 24.7304 75.2661 25.1759 75.2661C25.5999 75.2661 25.9461 75.2125 26.2145 75.1052C26.4802 74.9979 26.6788 74.8558 26.8022 74.6761C26.9283 74.4965 26.9901 74.2954 26.9901 74.0782C26.9901 73.8154 26.9149 73.6035 26.7646 73.4426C26.6144 73.2817 26.4158 73.1557 26.1715 73.0618C25.9273 72.968 25.6563 72.8875 25.3611 72.8151C25.0659 72.7454 24.768 72.6703 24.4728 72.5899C24.1776 72.5094 23.9038 72.4022 23.6569 72.2681C23.41 72.134 23.2087 71.9544 23.0584 71.7318C22.9082 71.5092 22.833 71.2196 22.833 70.8603C22.833 70.5251 22.9216 70.2194 23.0987 69.9405C23.2758 69.6616 23.5469 69.4364 23.9145 69.2648C24.2822 69.0931 24.7519 69.0073 25.3235 69.0073C25.7019 69.0073 26.0803 69.061 26.4533 69.1682C26.8264 69.2755 27.1484 69.4203 27.4195 69.6053L27.1779 70.1738C26.8881 69.9807 26.5821 69.8413 26.2574 69.7501C25.9327 69.6589 25.6187 69.616 25.3154 69.616C24.9102 69.616 24.5747 69.6697 24.3117 69.7796C24.0487 69.8896 23.8528 70.0344 23.7267 70.2167C23.6006 70.3991 23.5388 70.6082 23.5388 70.8388C23.5388 71.1016 23.614 71.3162 23.7669 71.4744C23.9172 71.6353 24.1185 71.7613 24.3654 71.8498C24.6123 71.941 24.886 72.0187 25.1813 72.0911C25.4765 72.1608 25.7717 72.2386 26.0642 72.3217C26.3567 72.4049 26.6278 72.5121 26.8747 72.6435C27.1216 72.7749 27.3229 72.9492 27.4731 73.1691C27.6234 73.3863 27.7013 73.6732 27.7013 74.0272C27.7013 74.3544 27.61 74.6574 27.4302 74.9389C27.2504 75.2178 26.974 75.4431 26.6063 75.6147C26.2279 75.789 25.7556 75.8748 25.1759 75.8748Z" fill="#B7B7B7"/>
<path d="M32.5856 75.8748C32.0784 75.8748 31.606 75.789 31.1713 75.6201C30.7365 75.4484 30.3608 75.2098 30.0414 74.896C29.7221 74.5823 29.4752 74.2203 29.298 73.8073C29.1209 73.3917 29.0323 72.9385 29.0323 72.4424C29.0323 71.9463 29.1209 71.4931 29.298 71.0775C29.4752 70.6618 29.7221 70.2998 30.0414 69.9888C30.3608 69.6777 30.7338 69.4364 31.1659 69.2648C31.598 69.0931 32.0703 69.0073 32.5856 69.0073C33.0928 69.0073 33.5624 69.0931 33.9945 69.2648C34.4266 69.4337 34.7996 69.675 35.119 69.9834C35.4383 70.2918 35.6853 70.6538 35.8624 71.0721C36.0395 71.4905 36.1281 71.9463 36.1281 72.4424C36.1281 72.9385 36.0395 73.3944 35.8624 73.8127C35.6853 74.231 35.4383 74.593 35.119 74.9014C34.7996 75.2098 34.4266 75.4484 33.9945 75.6201C33.5624 75.789 33.0955 75.8748 32.5856 75.8748ZM32.5856 75.2366C32.9908 75.2366 33.3665 75.1669 33.71 75.0301C34.0536 74.8933 34.3541 74.6949 34.6064 74.4428C34.8614 74.1908 35.0573 73.8931 35.1995 73.5552C35.3417 73.2174 35.4115 72.8473 35.4115 72.4424C35.4115 72.0375 35.3417 71.6648 35.1995 71.3296C35.0573 70.9917 34.8614 70.6967 34.6064 70.442C34.3514 70.1872 34.0536 69.9915 33.71 69.8547C33.3665 69.7179 32.9908 69.6482 32.5856 69.6482C32.1803 69.6482 31.8046 69.7179 31.4557 69.8547C31.1095 69.9941 30.8063 70.1899 30.5486 70.442C30.291 70.6967 30.0924 70.9917 29.9502 71.3296C29.8079 71.6674 29.7382 72.0375 29.7382 72.4424C29.7382 72.842 29.8079 73.212 29.9502 73.5499C30.0924 73.8904 30.291 74.1881 30.5486 74.4428C30.8063 74.6976 31.1069 74.8933 31.4557 75.0301C31.8046 75.1695 32.1803 75.2366 32.5856 75.2366Z" fill="#B7B7B7"/>
<path d="M39.9765 75.8748C39.4747 75.8748 38.9943 75.7917 38.5327 75.6281C38.0738 75.4645 37.7169 75.2527 37.4673 74.9953L37.7464 74.4455C37.9852 74.6761 38.3046 74.8719 38.7072 75.0301C39.1097 75.1883 39.5311 75.2661 39.9765 75.2661C40.4006 75.2661 40.7468 75.2125 41.0151 75.1052C41.2808 74.9979 41.4794 74.8558 41.6029 74.6761C41.729 74.4965 41.7907 74.2954 41.7907 74.0782C41.7907 73.8154 41.7156 73.6035 41.5653 73.4426C41.415 73.2817 41.2164 73.1557 40.9722 73.0618C40.728 72.968 40.4569 72.8875 40.1617 72.8151C39.8665 72.7454 39.5686 72.6703 39.2734 72.5899C38.9782 72.5094 38.7045 72.4022 38.4576 72.2681C38.2107 72.134 38.0094 71.9544 37.8591 71.7318C37.7088 71.5092 37.6337 71.2196 37.6337 70.8603C37.6337 70.5251 37.7222 70.2194 37.8994 69.9405C38.0765 69.6616 38.3475 69.4364 38.7152 69.2648C39.0829 69.0931 39.5525 69.0073 40.1242 69.0073C40.5026 69.0073 40.881 69.061 41.254 69.1682C41.627 69.2755 41.9491 69.4203 42.2201 69.6053L41.9786 70.1738C41.6888 69.9807 41.3828 69.8413 41.0581 69.7501C40.7334 69.6589 40.4194 69.616 40.1161 69.616C39.7109 69.616 39.3754 69.6697 39.1124 69.7796C38.8494 69.8896 38.6535 70.0344 38.5273 70.2167C38.4012 70.3991 38.3395 70.6082 38.3395 70.8388C38.3395 71.1016 38.4146 71.3162 38.5676 71.4744C38.7179 71.6353 38.9192 71.7613 39.1661 71.8498C39.413 71.941 39.6867 72.0187 39.9819 72.0911C40.2771 72.1608 40.5723 72.2386 40.8649 72.3217C41.1574 72.4049 41.4284 72.5121 41.6753 72.6435C41.9222 72.7749 42.1235 72.9492 42.2738 73.1691C42.4241 73.3863 42.5019 73.6732 42.5019 74.0272C42.5019 74.3544 42.4107 74.6574 42.2309 74.9389C42.0511 75.2178 41.7746 75.4431 41.407 75.6147C41.0312 75.789 40.5562 75.8748 39.9765 75.8748Z" fill="#B7B7B7"/>
<path d="M48.9912 75.8748C48.5538 75.8748 48.1647 75.8024 47.8238 75.6576C47.483 75.5128 47.2146 75.3117 47.0187 75.0543C46.8228 74.7968 46.7235 74.4992 46.7235 74.1586C46.7235 73.869 46.7879 73.6035 46.9167 73.3622C47.0456 73.1208 47.2522 72.8822 47.5394 72.6489C47.8265 72.4156 48.2076 72.1689 48.6826 71.9115C49.0879 71.6862 49.4045 71.4931 49.6326 71.3269C49.8608 71.1633 50.0245 71.0051 50.1211 70.8549C50.2177 70.7048 50.266 70.5412 50.266 70.3669C50.266 70.1175 50.1801 69.9137 50.011 69.7609C49.8393 69.6053 49.5978 69.5302 49.2811 69.5302C48.9402 69.5302 48.6772 69.6161 48.4894 69.785C48.3015 69.9566 48.2103 70.1765 48.2103 70.4447C48.2103 70.5787 48.2317 70.7075 48.272 70.8308C48.3149 70.9515 48.3928 71.0882 48.5135 71.2357C48.6316 71.3832 48.798 71.5709 49.01 71.7962L52.5793 75.4699L52.1848 75.9231L48.4599 72.0965C48.2344 71.8578 48.0573 71.6514 47.9231 71.4744C47.7916 71.2974 47.7004 71.1285 47.6494 70.9676C47.5984 70.8067 47.5716 70.6377 47.5716 70.4581C47.5716 70.1685 47.6413 69.9164 47.7782 69.7019C47.9178 69.4873 48.1137 69.3184 48.3713 69.2004C48.6289 69.0824 48.9295 69.0208 49.2784 69.0208C49.5924 69.0208 49.8688 69.0744 50.1023 69.179C50.3385 69.2862 50.521 69.4391 50.6525 69.6375C50.784 69.8359 50.851 70.0773 50.851 70.3615C50.851 70.6056 50.792 70.8335 50.6712 71.0453C50.5532 71.2572 50.3572 71.4637 50.0862 71.6675C49.8151 71.8686 49.4502 72.0965 48.9859 72.3486C48.5806 72.5738 48.2613 72.7803 48.0251 72.9653C47.7889 73.153 47.6252 73.3327 47.5286 73.5097C47.432 73.6867 47.3837 73.8824 47.3837 74.0943C47.3837 74.3383 47.4535 74.5528 47.5903 74.7352C47.7299 74.9175 47.9231 75.0596 48.17 75.1588C48.4169 75.2581 48.7014 75.309 49.0234 75.309C49.4743 75.309 49.8769 75.2151 50.2284 75.0301C50.5827 74.8451 50.8806 74.5609 51.1221 74.1828C51.3636 73.802 51.5381 73.3273 51.6481 72.7562L52.1983 72.9305C52.0748 73.5714 51.8655 74.113 51.5703 74.5501C51.2751 74.9872 50.9074 75.3197 50.47 75.5423C50.0379 75.7622 49.5441 75.8748 48.9912 75.8748Z" fill="#B7B7B7"/>
<path d="M58.4189 75.8159V69.6832H56.0438V69.0664H61.5052V69.6832H59.1301V75.8159H58.4189Z" fill="#B7B7B7"/>
<path d="M63.0295 75.8159V69.0664H65.5576C66.1292 69.0664 66.623 69.1576 67.0336 69.3426C67.4442 69.525 67.7636 69.7904 67.9837 70.1337C68.2064 70.4769 68.3164 70.8925 68.3164 71.3806C68.3164 71.8579 68.2064 72.2655 67.9837 72.6114C67.7609 72.9547 67.4442 73.2175 67.0336 73.4025C66.623 73.5848 66.1292 73.6787 65.5576 73.6787H63.424L63.7434 73.3515V75.8213H63.0295V75.8159ZM63.7434 73.4052L63.424 73.0673H65.5388C66.2151 73.0673 66.7277 72.9198 67.0792 72.6248C67.4308 72.3299 67.6053 71.9142 67.6053 71.3806C67.6053 70.8416 67.4308 70.4233 67.0792 70.1283C66.7277 69.8333 66.2151 69.6858 65.5388 69.6858H63.424L63.7434 69.348V73.4052ZM67.6428 75.8159L65.9065 73.3676H66.6794L68.4265 75.8159H67.6428Z" fill="#B7B7B7"/>
<path d="M71.1073 75.1991H75.1704V75.8159H70.3934V69.0664H75.0255V69.6832H71.1073V75.1991ZM71.0295 72.0858H74.5988V72.6946H71.0295V72.0858Z" fill="#B7B7B7"/>
<path d="M77.2344 75.8159V69.0664H77.9482V75.8159H77.2344Z" fill="#B7B7B7"/>
<path d="M80.5325 75.8159V69.0664H81.1202L85.7818 74.9283H85.4732V69.0664H86.1763V75.8159H85.5886L80.9377 69.954H81.2463V75.8159H80.5325Z" fill="#B7B7B7"/>
<path d="M87.6846 75.8159L90.7735 69.0664H91.4766L94.5656 75.8159H93.8141L90.9775 69.482H91.2673L88.4306 75.8159H87.6846ZM88.9003 74.0139L89.1123 73.4347H93.0386L93.2506 74.0139H88.9003Z" fill="#B7B7B7"/>
<path d="M96.0684 75.8159V69.0664H96.6561L99.745 74.3303H99.4364L102.496 69.0664H103.084V75.8159H102.399V70.1363H102.563L99.745 74.9578H99.4069L96.5702 70.1363H96.7527V75.8159H96.0684Z" fill="#B7B7B7"/>
<path d="M106.385 75.1991H110.448V75.8159H105.671V69.0664H110.303V69.6832H106.385V75.1991ZM106.307 72.0858H109.876V72.6946H106.307V72.0858Z" fill="#B7B7B7"/>
<path d="M112.512 75.8159V69.0664H113.099L117.761 74.9283H117.452V69.0664H118.156V75.8159H117.568L112.917 69.954H113.226V75.8159H112.512Z" fill="#B7B7B7"/>
<path d="M122.055 75.8159V69.6832H119.68V69.0664H125.141V69.6832H122.769V75.8159H122.055Z" fill="#B7B7B7"/>
<path d="M129.524 75.8748C129.016 75.8748 128.544 75.789 128.109 75.6201C127.674 75.4484 127.299 75.2098 126.982 74.896C126.663 74.585 126.416 74.2203 126.239 73.8073C126.062 73.3917 125.973 72.9385 125.973 72.4424C125.973 71.9463 126.062 71.4931 126.239 71.0775C126.416 70.6618 126.663 70.2998 126.982 69.9888C127.301 69.6777 127.674 69.4364 128.107 69.2648C128.536 69.0931 129.011 69.0073 129.524 69.0073C130.031 69.0073 130.5 69.0931 130.933 69.2648C131.365 69.4337 131.738 69.675 132.057 69.9834C132.376 70.2918 132.623 70.6538 132.8 71.0721C132.977 71.4905 133.066 71.9463 133.066 72.4424C133.066 72.9385 132.977 73.3944 132.8 73.8127C132.623 74.231 132.376 74.593 132.057 74.9014C131.738 75.2098 131.365 75.4484 130.933 75.6201C130.503 75.789 130.033 75.8748 129.524 75.8748ZM129.524 75.2366C129.929 75.2366 130.305 75.1669 130.648 75.0301C130.992 74.8933 131.292 74.6949 131.544 74.4428C131.799 74.1908 131.995 73.8931 132.137 73.5552C132.28 73.2174 132.35 72.8473 132.35 72.4424C132.35 72.0375 132.277 71.6648 132.137 71.3296C131.998 70.9944 131.799 70.6967 131.544 70.442C131.289 70.1872 130.992 69.9915 130.648 69.8547C130.305 69.7179 129.929 69.6482 129.524 69.6482C129.118 69.6482 128.743 69.7179 128.394 69.8547C128.048 69.9941 127.744 70.1899 127.487 70.442C127.229 70.6967 127.03 70.9917 126.888 71.3296C126.746 71.6674 126.676 72.0375 126.676 72.4424C126.676 72.842 126.746 73.212 126.888 73.5499C127.03 73.8904 127.229 74.1881 127.487 74.4428C127.744 74.6976 128.048 74.8933 128.394 75.0301C128.743 75.1695 129.118 75.2366 129.524 75.2366Z" fill="#B7B7B7"/>
<path d="M136.915 75.8748C136.413 75.8748 135.932 75.7917 135.471 75.6281C135.009 75.4645 134.655 75.2527 134.405 74.9953L134.684 74.4455C134.923 74.6761 135.243 74.8719 135.645 75.0301C136.048 75.1883 136.469 75.2661 136.915 75.2661C137.339 75.2661 137.685 75.2125 137.95 75.1052C138.219 74.9979 138.415 74.8558 138.538 74.6761C138.664 74.4965 138.726 74.2954 138.726 74.0782C138.726 73.8154 138.651 73.6035 138.498 73.4426C138.348 73.2817 138.149 73.1557 137.905 73.0618C137.661 72.968 137.39 72.8875 137.094 72.8151C136.799 72.7454 136.501 72.6703 136.206 72.5899C135.911 72.5094 135.64 72.4022 135.39 72.2681C135.141 72.134 134.942 71.9544 134.792 71.7318C134.639 71.5092 134.564 71.2196 134.564 70.8603C134.564 70.5251 134.652 70.2194 134.829 69.9405C135.006 69.6616 135.277 69.4364 135.645 69.2648C136.013 69.0931 136.48 69.0073 137.054 69.0073C137.432 69.0073 137.811 69.061 138.184 69.1682C138.557 69.2755 138.879 69.4203 139.147 69.6053L138.906 70.1738C138.616 69.9807 138.31 69.8413 137.985 69.7501C137.661 69.6589 137.347 69.616 137.046 69.616C136.641 69.616 136.305 69.6697 136.042 69.7796C135.779 69.8896 135.583 70.0344 135.457 70.2167C135.331 70.3991 135.269 70.6082 135.269 70.8388C135.269 71.1016 135.345 71.3162 135.498 71.4744C135.648 71.6353 135.849 71.7613 136.096 71.8498C136.343 71.941 136.614 72.0187 136.912 72.0911C137.207 72.1608 137.502 72.2386 137.795 72.3217C138.087 72.4049 138.358 72.5121 138.605 72.6435C138.852 72.7749 139.051 72.9492 139.204 73.1691C139.357 73.3863 139.432 73.6732 139.432 74.0272C139.432 74.3544 139.341 74.6574 139.161 74.9389C138.981 75.2178 138.705 75.4431 138.337 75.6147C137.969 75.789 137.494 75.8748 136.915 75.8748Z" fill="#B7B7B7"/>
<path d="M144.286 75.8159V69.0664H145V75.8159H144.286Z" fill="#B7B7B7"/>
<path d="M147.588 75.8159V69.0664H148.175L152.837 74.9283H152.528V69.0664H153.234V75.8159H152.646L147.995 69.954H148.304V75.8159H147.588Z" fill="#B7B7B7"/>
<path d="M155.819 75.8159V69.0664H158.569C159.289 69.0664 159.922 69.2085 160.467 69.4955C161.012 69.7824 161.433 70.1793 161.736 70.6861C162.039 71.1929 162.19 71.7801 162.19 72.4398C162.19 73.1022 162.039 73.6867 161.736 74.1962C161.433 74.703 161.012 75.0999 160.467 75.3868C159.922 75.6738 159.291 75.8159 158.569 75.8159H155.819ZM156.532 75.1991H158.529C159.128 75.1991 159.646 75.0811 160.088 74.8478C160.529 74.6119 160.872 74.2874 161.116 73.8744C161.36 73.4588 161.484 72.9815 161.484 72.4425C161.484 71.8955 161.363 71.4181 161.116 71.0052C160.872 70.5949 160.529 70.2704 160.088 70.0371C159.648 69.8012 159.128 69.6858 158.529 69.6858H156.532V75.1991Z" fill="#B7B7B7"/>
<path d="M166.897 75.8749C166.035 75.8749 165.356 75.6282 164.86 75.1321C164.363 74.636 164.116 73.9039 164.116 72.9332V69.0664H164.83V72.9037C164.83 73.7001 165.01 74.2901 165.372 74.6682C165.732 75.049 166.242 75.2367 166.897 75.2367C167.56 75.2367 168.072 75.0463 168.432 74.6682C168.791 74.2901 168.971 73.7001 168.971 72.9037V69.0664H169.666V72.9332C169.666 73.9039 169.419 74.636 168.928 75.1321C168.434 75.6282 167.758 75.8749 166.897 75.8749Z" fill="#B7B7B7"/>
<path d="M174.065 75.8748C173.563 75.8748 173.083 75.7917 172.621 75.6281C172.159 75.4645 171.805 75.2527 171.556 74.9953L171.835 74.4455C172.073 74.6761 172.393 74.8719 172.795 75.0301C173.198 75.1883 173.619 75.2661 174.065 75.2661C174.489 75.2661 174.835 75.2125 175.101 75.1052C175.369 74.9979 175.565 74.8558 175.688 74.6761C175.815 74.4965 175.876 74.2954 175.876 74.0782C175.876 73.8154 175.801 73.6035 175.648 73.4426C175.498 73.2817 175.299 73.1557 175.055 73.0618C174.811 72.968 174.54 72.8875 174.245 72.8151C173.949 72.7454 173.652 72.6703 173.356 72.5899C173.061 72.5094 172.79 72.4022 172.54 72.2681C172.291 72.134 172.092 71.9544 171.942 71.7318C171.789 71.5092 171.714 71.2196 171.714 70.8603C171.714 70.5251 171.802 70.2194 171.98 69.9405C172.157 69.6616 172.428 69.4364 172.795 69.2648C173.163 69.0931 173.63 69.0073 174.204 69.0073C174.583 69.0073 174.961 69.061 175.334 69.1682C175.707 69.2755 176.029 69.4203 176.298 69.6053L176.056 70.1738C175.766 69.9807 175.46 69.8413 175.136 69.7501C174.811 69.6589 174.497 69.616 174.196 69.616C173.791 69.616 173.456 69.6697 173.193 69.7796C172.93 69.8896 172.734 70.0344 172.608 70.2167C172.481 70.3991 172.42 70.6082 172.42 70.8388C172.42 71.1016 172.495 71.3162 172.648 71.4744C172.798 71.6353 172.999 71.7613 173.246 71.8498C173.493 71.941 173.764 72.0187 174.062 72.0911C174.357 72.1608 174.653 72.2386 174.945 72.3217C175.238 72.4049 175.509 72.5121 175.756 72.6435C176.002 72.7749 176.201 72.9492 176.354 73.1691C176.507 73.3863 176.582 73.6732 176.582 74.0272C176.582 74.3544 176.491 74.6574 176.311 74.9389C176.131 75.2178 175.855 75.4431 175.487 75.6147C175.12 75.789 174.644 75.8748 174.065 75.8748Z" fill="#B7B7B7"/>
<path d="M179.738 75.8159V69.6832H177.363V69.0664H182.825V69.6832H180.45V75.8159H179.738Z" fill="#B7B7B7"/>
<path d="M184.352 75.8159V69.0664H186.88C187.451 69.0664 187.945 69.1576 188.356 69.3426C188.766 69.525 189.083 69.7904 189.306 70.1337C189.529 70.4769 189.639 70.8925 189.639 71.3806C189.639 71.8579 189.529 72.2655 189.306 72.6114C189.083 72.9547 188.766 73.2175 188.356 73.4025C187.942 73.5848 187.451 73.6787 186.88 73.6787H184.749L185.068 73.3515V75.8213H184.352V75.8159ZM185.066 73.4052L184.746 73.0673H186.858C187.535 73.0673 188.047 72.9198 188.396 72.6248C188.748 72.3299 188.922 71.9142 188.922 71.3806C188.922 70.8416 188.748 70.4233 188.396 70.1283C188.044 69.8333 187.532 69.6858 186.858 69.6858H184.746L185.066 69.348V73.4052ZM188.965 75.8159L187.229 73.3676H188.002L189.749 75.8159H188.965Z" fill="#B7B7B7"/>
<path d="M191.716 75.8159V69.0664H192.43V75.8159H191.716Z" fill="#B7B7B7"/>
<path d="M193.935 75.8159L197.024 69.0664H197.727L200.816 75.8159H200.065L197.228 69.482H197.518L194.681 75.8159H193.935ZM195.151 74.0139L195.363 73.4347H199.292L199.504 74.0139H195.151Z" fill="#B7B7B7"/>
<path d="M202.319 75.8159V69.0664H203.033V75.8159H202.319Z" fill="#B7B7B7"/>
<path d="M207.483 75.8748C206.981 75.8748 206.5 75.7917 206.039 75.6281C205.577 75.4645 205.223 75.2527 204.973 74.9953L205.252 74.4455C205.491 74.6761 205.811 74.8719 206.213 75.0301C206.616 75.1883 207.037 75.2661 207.483 75.2661C207.907 75.2661 208.253 75.2125 208.519 75.1052C208.787 74.9979 208.983 74.8558 209.106 74.6761C209.232 74.4965 209.294 74.2954 209.294 74.0782C209.294 73.8154 209.219 73.6035 209.066 73.4426C208.916 73.2817 208.717 73.1557 208.473 73.0618C208.229 72.968 207.958 72.8875 207.662 72.8151C207.367 72.7454 207.069 72.6703 206.774 72.5899C206.479 72.5094 206.208 72.4022 205.958 72.2681C205.709 72.134 205.51 71.9544 205.36 71.7318C205.207 71.5092 205.132 71.2196 205.132 70.8603C205.132 70.5251 205.22 70.2194 205.397 69.9405C205.575 69.6616 205.846 69.4364 206.213 69.2648C206.581 69.0931 207.048 69.0073 207.622 69.0073C208.001 69.0073 208.379 69.061 208.752 69.1682C209.125 69.2755 209.447 69.4203 209.715 69.6053L209.474 70.1738C209.184 69.9807 208.878 69.8413 208.553 69.7501C208.229 69.6589 207.915 69.616 207.614 69.616C207.209 69.616 206.873 69.6697 206.61 69.7796C206.347 69.8896 206.152 70.0344 206.025 70.2167C205.899 70.3991 205.838 70.6082 205.838 70.8388C205.838 71.1016 205.913 71.3162 206.066 71.4744C206.216 71.6353 206.417 71.7613 206.664 71.8498C206.911 71.941 207.182 72.0187 207.48 72.0911C207.775 72.1608 208.07 72.2386 208.363 72.3217C208.655 72.4049 208.926 72.5121 209.173 72.6435C209.42 72.7749 209.619 72.9492 209.772 73.1691C209.925 73.3863 210 73.6732 210 74.0272C210 74.3544 209.909 74.6574 209.729 74.9389C209.549 75.2178 209.273 75.4431 208.905 75.6147C208.535 75.789 208.06 75.8748 207.483 75.8748Z" fill="#B7B7B7"/>
<path d="M174.926 60.925H173.885L138.675 0H139.724L174.926 60.925Z" fill="#B7B7B7"/>
<path d="M172.023 60.925H162.168C162.015 60.925 161.876 60.8446 161.8 60.7132L127.081 0.614077C126.926 0.340558 127.122 0 127.436 0H136.829L172.023 60.925Z" fill="#B7B7B7"/>
<path d="M140.787 35.1364L126.005 60.7157C125.93 60.8445 125.791 60.9249 125.643 60.9249H115.786L135.855 26.188L140.79 34.7234C140.862 34.8494 140.862 35.0076 140.787 35.1364Z" fill="#B7B7B7"/>
<path d="M134.923 24.5765L113.923 60.9251H112.882L134.405 23.6782L134.923 24.5765Z" fill="#B7B7B7"/>
<path d="M155.182 60.9249H132.623C132.296 60.9249 132.089 60.5709 132.253 60.2867L143.53 40.7542C143.694 40.47 144.104 40.47 144.268 40.7542L155.55 60.2867C155.716 60.5682 155.513 60.9249 155.182 60.9249Z" fill="#B7B7B7"/>
</svg>
