<svg width="147" height="94" viewBox="0 0 147 94" fill="none" xmlns="http://www.w3.org/2000/svg">
<path d="M139.049 51.845C139.049 51.4747 139.049 51.2278 139.049 50.981C139.049 44.0683 139.049 37.1556 139.049 30.2429C139.049 29.6257 139.173 29.3789 139.855 29.3789C141.652 29.4406 143.449 29.3789 145.246 29.3789C145.742 29.3789 145.928 29.564 145.928 30.0578C145.928 41.7846 145.928 53.5115 145.928 65.2383C145.928 65.7321 145.804 65.8555 145.308 65.8555C144.317 65.7938 143.263 65.7938 142.272 65.8555C141.776 65.8555 141.528 65.6704 141.218 65.3618C135.703 58.264 130.188 51.2278 124.735 44.13C124.053 43.2659 123.371 42.4018 122.69 41.476C122.442 41.8464 122.566 42.0932 122.566 42.3401C122.566 49.87 122.566 57.3999 122.566 64.9915C122.566 65.6704 122.442 65.8555 121.698 65.8555C119.901 65.7938 118.104 65.7938 116.307 65.8555C115.811 65.8555 115.625 65.6704 115.625 65.1766C115.625 53.4498 115.625 41.7846 115.625 30.0578C115.625 29.5023 115.749 29.3171 116.307 29.3171C117.67 29.3789 119.095 29.3789 120.459 29.3171C121.016 29.3171 121.388 29.5023 121.698 29.9343C127.275 37.0322 132.852 44.0683 138.43 51.1661C138.554 51.4747 138.678 51.6599 139.049 51.845Z" fill="#B7B7B7"/>
<path d="M72.7422 31.1687C78.0716 31.107 82.7812 32.7117 86.4374 36.7235C89.2261 39.7478 90.7753 43.3893 91.2091 47.4011C91.7668 52.277 90.9612 56.9678 88.2965 61.1648C85.384 65.7938 81.0461 68.2009 75.7167 68.8798C72.4943 69.3118 69.2099 69.1267 66.1115 68.1392C61.1539 66.5961 57.5597 63.3867 55.6386 58.6342C52.9739 52.0919 53.2838 45.5495 56.94 39.4392C60.1624 34.0696 65.1199 31.4773 71.3169 31.1687C71.8126 31.1687 72.3084 31.1687 72.7422 31.1687ZM70.7592 62.7695C78.3814 62.7695 82.3475 59.9921 83.9587 54.8076C84.6403 52.6474 84.7643 50.4872 84.5164 48.2035C83.9587 43.2659 80.8602 37.7728 73.4239 37.3407C68.2804 37.0321 63.9425 39.5627 61.8975 44.2534C61.2159 45.7964 60.8441 47.4629 60.7821 49.1293C60.6581 51.9684 61.0919 54.6224 62.4553 57.1529C64.6862 61.1648 68.2804 62.7078 70.7592 62.7695Z" fill="#B7B7B7"/>
<path d="M23.4768 72.398C22.981 71.1019 22.5472 69.9292 22.1134 68.8182C16.908 55.4249 11.7645 42.0316 6.62107 28.6383C6.31122 27.8359 6.31122 27.8359 7.17879 27.8359C13.0039 27.8359 18.891 27.8359 24.7161 27.8359C25.3358 27.8359 25.5837 27.9594 25.7696 28.5766C27.6907 35.6127 29.6737 42.6488 31.6567 49.6232C31.7807 49.9935 31.8426 50.3638 31.6567 50.7959C28.992 57.832 26.3273 64.8681 23.6627 71.9042C23.6627 72.0277 23.6007 72.0894 23.4768 72.398Z" fill="#B7B7B7"/>
<path d="M58.1794 82.7051C56.94 84.1247 55.7006 85.2974 54.3993 86.4083C47.7066 91.8397 40.0843 94.3702 31.4706 93.9382C16.0402 93.2593 2.90268 81.5324 0.485869 66.3492C-1.12534 56.5974 1.29147 47.7714 7.42645 39.9947C7.55039 39.8095 7.67432 39.6861 7.79826 39.5626C7.98417 39.3157 8.10811 39.3157 8.29402 39.6243C8.91371 40.9822 9.47144 42.34 10.0911 43.6979C10.277 44.0065 10.0911 44.2534 9.90522 44.5002C7.42645 48.0183 5.75327 51.9067 5.07161 56.1654C3.52237 66.4727 6.62084 75.2369 14.367 82.2113C19.9443 87.2107 26.6989 89.556 34.1972 89.3092C40.3942 89.124 45.9714 87.0255 50.8051 83.1989C51.1769 82.8903 51.6107 82.7668 52.1064 82.7668C54.0894 82.7668 56.0105 82.7051 58.1794 82.7051Z" fill="#B7B7B7"/>
<path d="M67.1652 7.83843C65.7399 11.6651 64.3146 15.4918 62.8893 19.3184C56.6304 36.0446 50.3715 52.7708 44.0506 69.497C42.8112 72.8916 41.5098 76.2245 40.2705 79.6191C40.1465 79.9895 40.0845 80.2363 39.5888 80.2363C36.5523 80.2363 33.5158 80.2363 30.4793 80.2363C30.3553 80.2363 30.2934 80.1746 30.1694 80.1746C31.4088 77.7058 32.7102 75.237 33.9496 72.7065C34.8791 70.8549 35.9326 69.065 36.6762 67.1516C37.5438 65.4235 38.4733 63.6953 39.3409 61.9671C48.5124 43.9448 57.6219 25.8608 66.7934 7.83843C66.8553 7.77671 66.9173 7.65327 66.9793 7.59155C67.0412 7.65327 67.1032 7.71499 67.1652 7.83843Z" fill="#B7B7B7"/>
<path d="M38.6591 23.3303C38.9689 23.1452 39.2168 23.2069 39.4647 23.2069C41.7576 23.2069 43.9885 23.2069 46.2813 23.2069C47.1489 23.2069 47.1489 23.2069 46.7771 22.4045C45.4138 19.5654 42.5632 18.2693 39.7745 19.2568C36.862 20.2443 35.1888 23.4538 35.9324 26.5398C36.8 29.9344 39.7745 31.9095 43.1209 31.2305C43.9885 31.0454 44.7941 30.6751 45.3518 29.9344C45.6616 29.5641 45.9095 29.5641 46.3433 29.7492C47.7066 30.3665 49.07 30.9837 50.4333 31.5391C51.053 31.786 50.991 31.9712 50.6192 32.4032C45.4138 38.9456 34.817 37.8963 31.1608 30.3047C28.9919 25.9226 29.4876 21.6639 32.5861 17.899C35.6226 14.1957 39.7126 12.7762 44.4222 14.0106C49.0699 15.245 51.9205 18.3927 52.974 23.0835C53.2839 24.4413 53.2219 25.7991 53.036 27.157C52.974 27.6508 52.7881 27.8359 52.2924 27.8359C48.884 27.8359 45.4757 27.8359 42.0674 27.8359C41.7576 27.8359 41.4477 27.7742 41.2618 27.4656C40.3942 25.9843 39.5267 24.6882 38.6591 23.3303Z" fill="#B7B7B7"/>
<path d="M101.93 47.7096C101.93 41.9079 101.93 36.1062 101.93 30.3045C101.93 29.6873 102.054 29.4404 102.736 29.4404C104.471 29.5021 106.268 29.5021 108.003 29.4404C108.623 29.4404 108.809 29.5639 108.809 30.2428C108.809 35.1187 108.809 39.9329 108.809 44.8088C108.809 51.598 108.809 58.3872 108.809 65.1765C108.809 65.8554 108.623 66.0406 108.003 65.9788C106.268 65.9171 104.595 65.9788 102.86 65.9788C101.868 65.9788 101.868 65.9788 101.868 65.053C101.93 59.313 101.93 53.5113 101.93 47.7096Z" fill="#B7B7B7"/>
<path d="M21.3697 80.3599C21.2458 79.9896 21.4937 79.7427 21.6176 79.4341C26.885 65.6088 32.1524 51.7217 37.3578 37.8963C37.6057 37.2791 37.8536 37.1557 38.4733 37.3409C40.0845 37.7729 41.7577 37.8346 43.3689 37.526C43.4308 37.8346 43.2449 38.0198 43.121 38.2667C36.2424 51.7217 29.3018 65.2384 22.4232 78.6935C22.1133 79.2489 21.8655 79.8661 21.4317 80.2982C21.4317 80.3599 21.4317 80.3599 21.3697 80.3599Z" fill="#B7B7B7"/>
<path d="M36.6764 67.1516C35.8707 69.065 34.8173 70.8548 33.9497 72.7065C32.7103 75.1753 31.4709 77.6441 30.1696 80.1746C29.0541 80.1746 27.8767 80.1746 26.7612 80.2363C26.4514 80.2363 26.3275 80.0512 26.2655 79.8043C25.8937 78.755 25.4599 77.7058 25.0881 76.7183C24.9641 76.4714 25.0261 76.2245 25.15 76.0393C28.1246 70.2994 31.0991 64.4977 34.0117 58.7577C34.0117 58.6959 34.0736 58.696 34.1976 58.5725C34.4455 59.3749 34.6314 60.1772 34.8792 60.9179C35.4989 62.9546 36.0567 65.0531 36.6764 67.1516Z" fill="#B7B7B7"/>
<path d="M58.3653 7.22127C57.002 7.5916 55.5767 7.96192 54.2133 8.27052C52.7261 8.64084 51.3008 9.01116 49.8135 9.38148C49.1318 9.56664 48.9459 9.38148 49.0699 8.76428C49.1938 7.9002 48.822 7.34471 48.2023 6.78923C44.794 3.70322 38.2872 3.70322 34.8169 6.72751C34.1352 7.34471 33.7015 7.96192 33.8874 8.88772C33.9493 9.4432 33.7634 9.62836 33.2057 9.38148C33.1437 9.31976 33.0198 9.31976 32.8959 9.31976C32.586 9.25804 32.2142 8.94944 31.9663 9.25804C31.7184 9.50492 32.1522 9.87525 32.1522 10.1221C32.0283 11.2331 32.4621 12.2823 32.4001 13.3933C32.4001 13.9488 31.8424 13.9488 31.4086 13.9488C31.0368 13.9488 30.541 13.9488 30.541 13.3933C30.541 12.6527 30.665 11.9737 30.7889 11.2948C30.8509 11.0479 30.9128 10.9245 30.7889 10.6776C30.7269 10.5542 30.665 10.4307 30.7269 10.3073C31.3466 8.33224 30.9128 6.23375 30.9748 4.2587C31.0368 3.57978 31.1607 3.20945 31.9043 3.20945C34.5071 3.20945 36.738 1.91333 39.0928 0.987525C39.8364 0.617203 40.642 0 41.4476 0C42.2532 0 43.0588 0.617203 43.8025 0.925804C48.4502 2.90085 53.1599 4.8759 57.8076 6.78923C57.9935 6.91267 58.2414 6.91267 58.3653 7.22127Z" fill="#B7B7B7"/>
<path d="M47.9545 11.1096C47.9545 11.9737 47.9545 12.8378 47.9545 13.7019C47.9545 14.1956 47.8305 14.2573 47.3967 14.0722C45.9095 13.3933 44.3602 12.9612 42.6871 12.7761C40.2083 12.4675 37.7915 12.9612 35.5606 14.0105C35.0028 14.2574 34.8789 14.2574 34.8789 13.5784C34.9409 11.9737 34.8789 10.369 34.8789 8.76425C34.8789 8.27048 35.0028 7.90016 35.3747 7.59156C38.1013 5.24619 41.1998 4.93759 44.4842 5.92511C44.856 6.04855 45.2278 6.17199 45.5996 6.35715C47.1489 7.0978 48.3263 8.0236 47.9545 9.99865C47.8925 10.3073 47.9545 10.7393 47.9545 11.1096Z" fill="#B7B7B7"/>
<path d="M48.3266 83.1373C46.5915 84.3717 44.8563 85.2358 42.9973 85.9764C27.6908 91.9633 10.6492 83.0755 7.05498 67.0283C5.44377 59.8687 6.68316 53.0795 10.6492 46.8457C10.7731 46.6606 10.8351 46.1051 11.2069 46.352C11.5168 46.5371 11.2689 46.9075 11.083 47.2161C7.79861 52.4623 6.49725 58.1406 7.17891 64.3126C8.4183 75.4222 17.2799 84.8654 28.3105 86.8405C34.9412 88.0132 41.0762 86.8405 46.8394 83.4459C47.2731 83.1373 47.645 82.8904 48.3266 83.1373Z" fill="#B7B7B7"/>
<path d="M24.5923 7.03613C26.3274 6.29548 28.0626 5.61656 29.7977 4.87592C30.1076 4.75248 30.1695 4.87592 30.1695 5.18452C30.1695 6.23376 30.1695 7.28301 30.1695 8.27053C30.1695 8.57913 30.0456 8.64085 29.7357 8.57913C28.0006 8.14709 26.3274 7.71505 24.5923 7.22129C24.5923 7.15957 24.5923 7.09785 24.5923 7.03613Z" fill="#B7B7B7"/>
<path d="M67.1649 7.83835C67.1029 7.77663 67.041 7.71491 66.979 7.59146C67.2269 6.85082 67.6607 6.1719 68.1564 5.24609C67.7846 6.23362 67.5987 7.0977 67.1649 7.83835Z" fill="#B7B7B7"/>
<path d="M21.3696 80.3599H21.4316C21.3076 81.0388 20.9978 81.5943 20.626 82.1498C20.8739 81.5326 20.9358 80.9153 21.3696 80.3599Z" fill="#B7B7B7"/>
<path d="M61.9595 86.9639L63.1989 83.5076H63.9426L62.3314 87.5811H61.5258L59.9146 83.5076H60.7202L61.9595 86.9639Z" fill="#B7B7B7"/>
<path d="M69.6439 87.3959C69.334 87.2107 69.0861 86.9639 68.9002 86.6553C68.7143 86.3467 68.6523 85.9763 68.6523 85.5443C68.6523 85.1123 68.7143 84.7419 68.9002 84.4333C69.0861 84.1247 69.334 83.8778 69.6439 83.6927C69.9537 83.5075 70.3255 83.4458 70.6973 83.4458C71.0691 83.4458 71.441 83.5075 71.7508 83.6927C72.0607 83.8778 72.3085 84.1247 72.4944 84.4333C72.6804 84.7419 72.7423 85.1123 72.7423 85.5443C72.7423 85.9763 72.6804 86.3467 72.4325 86.6553C72.2466 86.9639 71.9987 87.2107 71.6888 87.3959C71.379 87.5811 71.0072 87.6428 70.6354 87.6428C70.2635 87.6428 69.8917 87.5811 69.6439 87.3959ZM71.317 86.9021C71.5029 86.7787 71.6888 86.5935 71.8128 86.4084C71.9367 86.2232 71.9987 85.9146 71.9987 85.606C71.9987 85.2974 71.9367 84.9888 71.8128 84.8036C71.6888 84.5568 71.5029 84.4333 71.317 84.3099C71.1311 84.1864 70.8832 84.1247 70.6354 84.1247C70.3875 84.1247 70.1396 84.1864 69.9537 84.3099C69.7678 84.4333 69.5819 84.6185 69.4579 84.8036C69.334 85.0505 69.272 85.2974 69.272 85.606C69.272 85.9146 69.334 86.2232 69.4579 86.4701C69.5819 86.717 69.7678 86.8404 69.9537 86.9639C70.1396 87.0873 70.3875 87.149 70.6354 87.149C70.8832 87.149 71.1311 87.0256 71.317 86.9021Z" fill="#B7B7B7"/>
<path d="M77.8857 82.7052C77.8237 82.6435 77.7617 82.5201 77.7617 82.3966C77.7617 82.2732 77.8237 82.1498 77.8857 82.088C77.9476 82.0263 78.0716 81.9646 78.1955 81.9646C78.3194 81.9646 78.4434 82.0263 78.5054 82.088C78.5673 82.1498 78.6293 82.2732 78.6293 82.3966C78.6293 82.5201 78.5673 82.6435 78.5054 82.7052C78.4434 82.767 78.3194 82.8287 78.1955 82.8287C78.1335 82.8904 78.0096 82.8287 77.8857 82.7052ZM78.5673 83.5076V87.5811H77.8857V83.5076H78.5673Z" fill="#B7B7B7"/>
<path d="M87.1811 83.878C87.491 84.1866 87.6149 84.6187 87.6149 85.1742V87.5812H86.9333V85.2976C86.9333 84.8656 86.8093 84.557 86.6234 84.3718C86.4375 84.1866 86.1277 84.0632 85.8178 84.0632C85.446 84.0632 85.1981 84.1866 84.9503 84.3718C84.7024 84.557 84.6404 84.9273 84.6404 85.3593V87.5812H83.9587V83.5077H84.6404V84.0632C84.7643 83.878 84.9503 83.6929 85.1981 83.5694C85.446 83.446 85.6939 83.3843 85.9418 83.3843C86.4375 83.446 86.8713 83.5694 87.1811 83.878Z" fill="#B7B7B7"/>
<path d="M92.8822 87.5195C92.8203 87.4577 92.7583 87.3343 92.7583 87.2108C92.7583 87.0874 92.8203 86.964 92.8822 86.9022C92.9442 86.8405 93.0681 86.7788 93.1921 86.7788C93.316 86.7788 93.44 86.8405 93.5019 86.9022C93.5639 86.964 93.6259 87.0874 93.6259 87.2108C93.6259 87.3343 93.5639 87.4577 93.5019 87.5195C93.44 87.5812 93.316 87.6429 93.1921 87.6429C93.0681 87.6429 92.9442 87.5812 92.8822 87.5195Z" fill="#B7B7B7"/>
<path d="M98.7693 84.4333C98.9552 84.1247 99.1411 83.8778 99.451 83.6927C99.7608 83.5075 100.071 83.4458 100.504 83.4458C101 83.4458 101.434 83.5692 101.744 83.8161C102.054 84.063 102.302 84.3716 102.364 84.8036H101.62C101.558 84.5568 101.434 84.3716 101.186 84.2482C101 84.1247 100.752 84.063 100.443 84.063C100.071 84.063 99.7608 84.1864 99.513 84.4333C99.2651 84.6802 99.1411 85.0505 99.1411 85.5443C99.1411 86.0381 99.2651 86.4084 99.513 86.6553C99.7608 86.9021 100.071 87.0256 100.443 87.0256C100.752 87.0256 101 86.9639 101.186 86.8404C101.372 86.717 101.496 86.5318 101.62 86.2232H102.364C102.24 86.6553 102.054 86.9639 101.682 87.2107C101.372 87.4576 100.938 87.5811 100.443 87.5811C100.071 87.5811 99.6989 87.5193 99.389 87.3342C99.0792 87.149 98.8313 86.9021 98.7074 86.5935C98.5214 86.2849 98.4595 85.9146 98.4595 85.4826C98.5214 85.1123 98.6454 84.7419 98.7693 84.4333Z" fill="#B7B7B7"/>
<path d="M108.313 87.3959C108.003 87.2107 107.755 86.9639 107.569 86.6553C107.383 86.3467 107.321 85.9763 107.321 85.5443C107.321 85.1123 107.383 84.7419 107.569 84.4333C107.755 84.1247 108.003 83.8778 108.313 83.6927C108.623 83.5075 108.994 83.4458 109.366 83.4458C109.738 83.4458 110.11 83.5075 110.42 83.6927C110.73 83.8778 110.977 84.1247 111.163 84.4333C111.349 84.7419 111.411 85.1123 111.411 85.5443C111.411 85.9763 111.287 86.3467 111.101 86.6553C110.916 86.9639 110.668 87.2107 110.358 87.3959C110.048 87.5811 109.676 87.6428 109.304 87.6428C108.932 87.6428 108.623 87.5811 108.313 87.3959ZM110.048 86.9021C110.234 86.7787 110.42 86.5935 110.544 86.4084C110.668 86.2232 110.73 85.9146 110.73 85.606C110.73 85.2974 110.668 84.9888 110.544 84.8036C110.42 84.5568 110.234 84.4333 110.048 84.3099C109.862 84.1864 109.614 84.1247 109.366 84.1247C109.118 84.1247 108.871 84.1864 108.685 84.3099C108.499 84.4333 108.313 84.6185 108.189 84.8036C108.065 85.0505 108.003 85.2974 108.003 85.606C108.003 85.9146 108.065 86.2232 108.189 86.4701C108.313 86.717 108.499 86.8404 108.685 86.9639C108.871 87.0873 109.118 87.149 109.366 87.149C109.614 87.0256 109.8 87.0256 110.048 86.9021Z" fill="#B7B7B7"/>
<path d="M122.318 83.6312C122.566 83.7546 122.752 83.9398 122.875 84.2484C122.999 84.4952 123.061 84.8038 123.061 85.1742V87.5812H122.38V85.2976C122.38 84.8656 122.256 84.557 122.07 84.3718C121.884 84.1866 121.574 84.0632 121.264 84.0632C120.892 84.0632 120.645 84.1866 120.397 84.3718C120.149 84.557 120.087 84.9273 120.087 85.3593V87.5812H119.405V85.2976C119.405 84.8656 119.281 84.557 119.095 84.3718C118.909 84.1866 118.6 84.0632 118.29 84.0632C117.918 84.0632 117.67 84.1866 117.422 84.3718C117.174 84.557 117.112 84.9273 117.112 85.3593V87.5812H116.431V83.5077H117.112V84.0632C117.236 83.878 117.422 83.6929 117.67 83.5694C117.918 83.446 118.166 83.3843 118.414 83.3843C118.786 83.3843 119.033 83.446 119.343 83.6312C119.653 83.8163 119.777 84.0015 119.901 84.3101C120.025 84.0015 120.211 83.8163 120.459 83.6312C120.707 83.446 121.016 83.3843 121.326 83.3843C121.822 83.446 122.07 83.5077 122.318 83.6312Z" fill="#B7B7B7"/>
<path d="M128.391 87.5195C128.329 87.4577 128.267 87.3343 128.267 87.2108C128.267 87.0874 128.329 86.964 128.391 86.9022C128.453 86.8405 128.577 86.7788 128.701 86.7788C128.825 86.7788 128.949 86.8405 129.01 86.9022C129.072 86.964 129.134 87.0874 129.134 87.2108C129.134 87.3343 129.072 87.4577 129.01 87.5195C128.949 87.5812 128.825 87.6429 128.701 87.6429C128.577 87.6429 128.453 87.5812 128.391 87.5195Z" fill="#B7B7B7"/>
<path d="M135.579 83.6929C135.827 83.5694 136.137 83.446 136.509 83.446C136.881 83.446 137.19 83.5077 137.5 83.6929C137.81 83.878 137.996 84.1249 138.182 84.4335C138.368 84.7421 138.43 85.1124 138.43 85.5445C138.43 85.9765 138.368 86.3468 138.182 86.6554C137.996 86.964 137.81 87.2109 137.5 87.3961C137.19 87.5812 136.881 87.643 136.509 87.643C136.137 87.643 135.827 87.5812 135.579 87.3961C135.331 87.2726 135.083 87.0258 134.959 86.8406V87.5812H134.278V82.0881H134.959V84.2483C135.145 84.0632 135.331 83.8163 135.579 83.6929ZM137.562 84.7421C137.438 84.4952 137.252 84.3718 137.066 84.2483C136.881 84.1249 136.633 84.0632 136.385 84.0632C136.137 84.0632 135.889 84.1249 135.703 84.2483C135.517 84.3718 135.331 84.5569 135.207 84.8038C135.083 85.0507 135.021 85.2976 135.021 85.6062C135.021 85.9148 135.083 86.1617 135.207 86.4086C135.331 86.6554 135.517 86.8406 135.703 86.964C135.889 87.0875 136.137 87.1492 136.385 87.1492C136.633 87.1492 136.881 87.0875 137.066 86.964C137.252 86.8406 137.438 86.6554 137.562 86.4086C137.686 86.1617 137.748 85.9148 137.748 85.6062C137.748 85.2359 137.686 84.989 137.562 84.7421Z" fill="#B7B7B7"/>
<path d="M144.751 83.631C144.999 83.5075 145.246 83.4458 145.556 83.4458V84.1247H145.37C144.627 84.1247 144.255 84.5568 144.255 85.3591V87.5811H143.573V83.5075H144.255V84.1864C144.379 83.9396 144.565 83.7544 144.751 83.631Z" fill="#B7B7B7"/>
<path d="M48.2645 71.4106V74.9903H51.9207V75.7927H48.2645V79.4342H52.2925V80.2366H47.2729V70.6699H52.2925V71.4723H48.2645V71.4106Z" fill="#B7B7B7"/>
<path d="M60.4105 71.2254C61.1541 71.5957 61.7738 72.1512 62.1456 72.8919C62.5175 73.6325 62.7653 74.4966 62.7653 75.4841C62.7653 76.4716 62.5794 77.3357 62.1456 78.0146C61.7738 78.7553 61.1541 79.249 60.4105 79.6811C59.6669 80.0514 58.7373 80.2366 57.6838 80.2366H54.8333V70.6699H57.6838C58.7373 70.6699 59.6669 70.8551 60.4105 71.2254ZM60.7203 78.385C61.402 77.706 61.7738 76.7185 61.7738 75.4841C61.7738 74.2497 61.402 73.2622 60.7203 72.5215C60.0387 71.8426 58.9852 71.4723 57.6838 71.4723H55.8248V79.4342H57.6838C59.0472 79.4342 60.0387 79.0639 60.7203 78.385Z" fill="#B7B7B7"/>
<path d="M66.0496 70.6699V76.6568C66.0496 77.5826 66.2975 78.3232 66.7313 78.7553C67.1651 79.1873 67.7848 79.4342 68.5904 79.4342C69.396 79.4342 70.0157 79.1873 70.4494 78.7553C70.8832 78.3232 71.1311 77.5826 71.1311 76.6568V70.6699H72.1226V76.6568C72.1226 77.8912 71.8128 78.7553 71.1311 79.3725C70.5114 79.9897 69.6438 80.2983 68.5904 80.2983C67.5369 80.2983 66.7313 79.9897 66.0496 79.3725C65.4299 78.7553 65.0581 77.8295 65.0581 76.6568V70.6699H66.0496Z" fill="#B7B7B7"/>
<path d="M75.0352 72.8918C75.469 72.1511 76.0267 71.5956 76.7084 71.1636C77.452 70.7315 78.1957 70.5464 79.1252 70.5464C80.1787 70.5464 81.1082 70.7933 81.8519 71.287C82.5955 71.7808 83.1532 72.5214 83.525 73.4472H82.4096C82.1617 72.83 81.7279 72.2746 81.1702 71.9042C80.6125 71.5339 79.9308 71.3487 79.1252 71.3487C78.4435 71.3487 77.7619 71.5339 77.2042 71.8425C76.6464 72.1511 76.2126 72.6449 75.9028 73.2621C75.5929 73.8793 75.407 74.6199 75.407 75.4223C75.407 76.2246 75.5929 76.9653 75.9028 77.5825C76.2126 78.1997 76.6464 78.6935 77.2042 79.0021C77.7619 79.3107 78.3816 79.4958 79.1252 79.4958C79.9308 79.4958 80.6125 79.3107 81.1702 78.9403C81.7279 78.57 82.1617 78.0763 82.4096 77.4591H83.525C83.1532 78.3849 82.5955 79.0638 81.8519 79.5575C81.1082 80.0513 80.1787 80.2982 79.1252 80.2982C78.2576 80.2982 77.452 80.113 76.7084 79.681C75.9648 79.2489 75.407 78.6935 75.0352 77.9528C74.6634 77.2122 74.4155 76.3481 74.4155 75.4223C74.4155 74.4965 74.6014 73.6324 75.0352 72.8918Z" fill="#B7B7B7"/>
<path d="M91.581 77.9528H87.2431L86.3755 80.2364H85.384L88.8543 70.7932H89.9078L93.3781 80.2364H92.3866L91.581 77.9528ZM91.3331 77.1504L89.412 71.9659L87.491 77.1504H91.3331Z" fill="#B7B7B7"/>
<path d="M95.795 72.8918C96.2288 72.1511 96.7865 71.5956 97.4682 71.1636C98.1498 70.7315 98.9554 70.5464 99.885 70.5464C100.938 70.5464 101.868 70.7933 102.612 71.287C103.355 71.7808 103.913 72.5214 104.285 73.4472H103.169C102.921 72.83 102.488 72.2746 101.93 71.9042C101.372 71.5339 100.691 71.3487 99.885 71.3487C99.2033 71.3487 98.5216 71.5339 97.9639 71.8425C97.4062 72.1511 96.9724 72.6449 96.6626 73.2621C96.3527 73.8793 96.1668 74.6199 96.1668 75.4223C96.1668 76.2246 96.3527 76.9653 96.6626 77.5825C96.9724 78.1997 97.4062 78.6935 97.9639 79.0021C98.5216 79.3107 99.1413 79.4958 99.885 79.4958C100.691 79.4958 101.372 79.3107 101.93 78.9403C102.488 78.57 102.921 78.0763 103.169 77.4591H104.285C103.913 78.3849 103.355 79.0638 102.612 79.5575C101.868 80.0513 100.938 80.2982 99.885 80.2982C99.0174 80.2982 98.2118 80.113 97.4682 79.681C96.7245 79.2489 96.1668 78.6935 95.795 77.9528C95.3612 77.2122 95.1753 76.3481 95.1753 75.4223C95.1753 74.4965 95.3612 73.6324 95.795 72.8918Z" fill="#B7B7B7"/>
<path d="M107.755 70.6699V80.2366H106.826V70.6699H107.755Z" fill="#B7B7B7"/>
<path d="M112.465 79.681C111.721 79.2489 111.163 78.6935 110.73 77.9528C110.296 77.2122 110.11 76.3481 110.11 75.4223C110.11 74.4965 110.296 73.6324 110.73 72.8918C111.163 72.1511 111.721 71.5956 112.465 71.1636C113.208 70.7315 114.014 70.5464 114.882 70.5464C115.749 70.5464 116.617 70.7315 117.298 71.1636C118.042 71.5956 118.6 72.1511 118.971 72.8918C119.405 73.6324 119.591 74.4965 119.591 75.4223C119.591 76.3481 119.405 77.2122 118.971 77.9528C118.538 78.6935 117.98 79.2489 117.298 79.681C116.555 80.113 115.749 80.2982 114.882 80.2982C114.014 80.2982 113.208 80.113 112.465 79.681ZM116.803 78.9403C117.36 78.6317 117.794 78.138 118.166 77.5208C118.476 76.9036 118.662 76.1629 118.662 75.3606C118.662 74.5582 118.476 73.8176 118.166 73.2004C117.856 72.5832 117.36 72.1511 116.803 71.7808C116.245 71.4722 115.625 71.287 114.882 71.287C114.138 71.287 113.518 71.4722 112.96 71.7808C112.403 72.0894 111.969 72.5832 111.597 73.2004C111.287 73.8176 111.101 74.4965 111.101 75.3606C111.101 76.1629 111.287 76.9036 111.597 77.5208C111.907 78.138 112.403 78.6317 112.96 78.9403C113.518 79.2489 114.138 79.4341 114.882 79.4341C115.625 79.4341 116.245 79.3107 116.803 78.9403Z" fill="#B7B7B7"/>
<path d="M129.197 80.1748H128.267L122.938 72.1512V80.1748H122.008V70.6082H122.938L128.267 78.6318V70.6082H129.197V80.1748Z" fill="#B7B7B7"/>
<path d="M137.562 77.9528H133.225L132.357 80.2364H131.365L134.836 70.7932H135.951L139.422 80.2364H138.43L137.562 77.9528ZM137.315 77.1504L135.393 71.9659L133.472 77.1504H137.315Z" fill="#B7B7B7"/>
<path d="M142.582 79.4342H146.052V80.2366H141.652V70.6699H142.582V79.4342Z" fill="#B7B7B7"/>
</svg>
